<?xml version="1.0" encoding="utf-8"?>
<!DOCTYPE svg PUBLIC "-//W3C//DTD SVG 1.1//EN" "http://www.w3.org/Graphics/SVG/1.1/DTD/svg11.dtd">
<svg version="1.1" xmlns="http://www.w3.org/2000/svg" xmlns:xlink="http://www.w3.org/1999/xlink" x="0px" y="0px" viewBox="0 0 256 256" enable-background="new 0 0 256 256" xml:space="preserve">
<g><g><path fill="#A9A9A9" d="M15.9,62.6l105.3,60.8c2.1,1.2,4.5,1.7,6.7,1.5c2.3,0.2,4.6-0.3,6.7-1.5l105.3-60.8c5.7-3.3,7.6-10.7,4.3-16.5c-3.3-5.8-10.7-7.8-16.4-4.5L128,99.3l-100-57.7c-5.7-3.3-13-1.3-16.4,4.5C8.3,51.9,10.2,59.3,15.9,62.6z"/><path fill="#000000" d="M228,132.6l-100,57.7l-100-57.7c-5.7-3.3-13.1-1.3-16.4,4.5c-3.3,5.8-1.4,13.2,4.3,16.5l105.4,60.8c2.1,1.2,4.5,1.7,6.7,1.5c2.3,0.2,4.6-0.3,6.7-1.5l105.3-60.8c5.7-3.3,7.6-10.7,4.3-16.5C241,131.3,233.7,129.3,228,132.6z"/></g></g>
</svg>